<svg id="Calque_1" data-name="Calque 1" xmlns="http://www.w3.org/2000/svg" viewBox="0 0 72 72"><defs><style>.cls-1{fill:#05aee8;}.cls-2{font-size:6.07px;font-family:Montserrat-Bold, Montserrat;font-weight:700;}.cls-2,.cls-3{fill:#fff;}</style></defs><rect class="cls-1" width="72" height="72"/><text class="cls-2" transform="translate(3.77 67.78)">LES PÉPITES DU RAP</text><path class="cls-3" d="M4.4,26.69V-.23l6-1V20.28l11.47-2v5.35Z"/><path class="cls-3" d="M44.81-4.95Q47.65-3,47.64,2a10.37,10.37,0,0,1-2.9,7.81q-2.91,2.82-8.88,3.88l-3.58.63v7.51l-6,1.06V-4.08l9.51-1.68Q42-6.85,44.81-4.95ZM40.4,6.42a6,6,0,0,0,1.08-3.73c0-1.55-.47-2.57-1.4-3.06a7.21,7.21,0,0,0-4.37-.22L32.28,0V9.07l4-.71C38.32,8,39.69,7.36,40.4,6.42Z"/><path class="cls-3" d="M24.88,32.52q3.86,2.85,3.86,9.12A15.6,15.6,0,0,1,25,52.24q-3.75,4.32-11.46,5.68l-9.2,1.62V32.62L13.83,31Q21,29.68,24.88,32.52ZM20.48,49.3a9.31,9.31,0,0,0,2.21-6.44q0-4-2.21-5.71c-1.48-1.16-3.75-1.48-6.8-.94l-3.35.59V53.17l3.81-.67A10.72,10.72,0,0,0,20.48,49.3Z"/><path class="cls-3" d="M55.77,32.49q0,6.46-5.12,9.26l6.81,8.42-7.39,1.31-6-7.54-4.16.73v8.59l-6,1.06V27.4l10.21-1.8c4.18-.73,7.17-.55,9,.54S55.77,29.35,55.77,32.49ZM48.53,37a4.78,4.78,0,0,0,1.12-3.37c0-1.45-.39-2.38-1.16-2.78s-2.12-.44-4-.1l-4.51.79v8l4.39-.78A7.54,7.54,0,0,0,48.53,37Z"/><path class="cls-3" d="M61.76,48.74a2.71,2.71,0,0,1-1-2.23,3.86,3.86,0,0,1,1-2.58,4,4,0,0,1,2.4-1.41,2.83,2.83,0,0,1,2.41.56,2.71,2.71,0,0,1,1,2.23,3.86,3.86,0,0,1-1,2.58,4,4,0,0,1-2.41,1.41A2.8,2.8,0,0,1,61.76,48.74Z"/></svg>