<svg id="Calque_1" data-name="Calque 1" xmlns="http://www.w3.org/2000/svg" viewBox="0 0 72 72"><defs><style>.cls-1{fill:#05aee8;}.cls-2{fill:#fff;}</style></defs><rect class="cls-1" width="72" height="72"/><path class="cls-2" d="M4.29,67.78V63.54h1v3.4H7.05v.84Z"/><path class="cls-2" d="M10.8,63.54v.84H8.69v.88h1.9v.8H8.69v.88h2.18v.84H7.74V63.54Z"/><path class="cls-2" d="M12.7,64.38a.39.39,0,0,0-.14.3.35.35,0,0,0,.17.3,2.9,2.9,0,0,0,.77.25,2.17,2.17,0,0,1,.94.45,1.25,1.25,0,0,1-.1,1.79,1.67,1.67,0,0,1-1.12.36,2.62,2.62,0,0,1-1.82-.75l.57-.69a2,2,0,0,0,1.27.6.71.71,0,0,0,.41-.11.37.37,0,0,0,.15-.3.38.38,0,0,0-.16-.31A2.43,2.43,0,0,0,13,66a2.75,2.75,0,0,1-1.08-.45A1.27,1.27,0,0,1,12,63.77a1.74,1.74,0,0,1,1.08-.33,2.5,2.5,0,0,1,.85.15,2.05,2.05,0,0,1,.74.41l-.48.69a1.83,1.83,0,0,0-1.14-.42A.6.6,0,0,0,12.7,64.38Z"/><path class="cls-2" d="M20.1,63.92a1.43,1.43,0,0,1,.45,1.16,1.36,1.36,0,0,1-.46,1.15,2.17,2.17,0,0,1-1.4.37h-.56v1.18h-.95V63.54h1.5A2.12,2.12,0,0,1,20.1,63.92Zm-.69,1.67a.85.85,0,0,0,.17-.56.6.6,0,0,0-.22-.52,1.17,1.17,0,0,0-.69-.16h-.54v1.43h.64A.89.89,0,0,0,19.41,65.59Z"/><path class="cls-2" d="M24.35,63.54v.84H22.24v.88h1.9v.8h-1.9v.88h2.17v.84H21.29V63.54Zm-1.19-.44H22.3L23.07,62l.94.39Z"/><path class="cls-2" d="M28.18,63.92a1.43,1.43,0,0,1,.45,1.16,1.39,1.39,0,0,1-.46,1.15,2.19,2.19,0,0,1-1.4.37H26.2v1.18h-.94V63.54h1.5A2.13,2.13,0,0,1,28.18,63.92Zm-.7,1.67a.8.8,0,0,0,.17-.56.57.57,0,0,0-.22-.52,1.13,1.13,0,0,0-.69-.16H26.2v1.43h.64A.86.86,0,0,0,27.48,65.59Z"/><path class="cls-2" d="M29.37,63.54h.94v4.24h-.94Z"/><path class="cls-2" d="M33.15,64.36v3.42h-.94V64.36H31v-.82h3.35v.82Z"/><path class="cls-2" d="M38.1,63.54v.84H36v.88h1.9v.8H36v.88h2.18v.84H35.05V63.54Z"/><path class="cls-2" d="M40,64.38a.36.36,0,0,0-.14.3A.33.33,0,0,0,40,65a2.77,2.77,0,0,0,.77.25,2.13,2.13,0,0,1,.93.45,1.09,1.09,0,0,1,.34.87,1.11,1.11,0,0,1-.43.92,1.7,1.7,0,0,1-1.13.36,2.59,2.59,0,0,1-1.81-.75l.56-.69a2,2,0,0,0,1.27.6.69.69,0,0,0,.41-.11.37.37,0,0,0,.15-.3.36.36,0,0,0-.16-.31,2.18,2.18,0,0,0-.62-.23,2.74,2.74,0,0,1-1.09-.45,1.12,1.12,0,0,1-.34-.89,1.1,1.1,0,0,1,.44-.93,1.74,1.74,0,0,1,1.08-.33,2.54,2.54,0,0,1,.85.15A2.14,2.14,0,0,1,42,64l-.48.69a1.87,1.87,0,0,0-1.14-.42A.58.58,0,0,0,40,64.38Z"/><path class="cls-2" d="M47.73,64.09a2,2,0,0,1,.6,1.55,2,2,0,0,1-.59,1.56,2.45,2.45,0,0,1-1.8.58H44.49V63.54H46A2.51,2.51,0,0,1,47.73,64.09ZM47,66.61a1.23,1.23,0,0,0,.35-1,1.28,1.28,0,0,0-.35-1A1.51,1.51,0,0,0,46,64.36h-.53v2.58H46A1.39,1.39,0,0,0,47,66.61Z"/><path class="cls-2" d="M50.28,66.68a.75.75,0,0,0,.63.3.77.77,0,0,0,.64-.3,1.27,1.27,0,0,0,.23-.8V63.54h.95v2.37a1.88,1.88,0,0,1-.51,1.42,2,2,0,0,1-2.62,0,1.87,1.87,0,0,1-.51-1.41V63.54H50v2.34A1.21,1.21,0,0,0,50.28,66.68Z"/><path class="cls-2" d="M58.75,65a1.25,1.25,0,0,1-.8,1.31L59,67.78H57.85l-.94-1.35h-.65v1.35h-.95V63.54h1.61a2.32,2.32,0,0,1,1.41.33A1.29,1.29,0,0,1,58.75,65Zm-1.14.5a.64.64,0,0,0,.18-.5.53.53,0,0,0-.18-.47,1.16,1.16,0,0,0-.64-.13h-.71v1.26H57A1.06,1.06,0,0,0,57.61,65.45Z"/><path class="cls-2" d="M62.74,67.78l-.39-.92H60.57l-.39.92h-1L61,63.54h.92l1.83,4.24Zm-1.28-3L60.93,66H62Z"/><path class="cls-2" d="M67.16,63.92a1.43,1.43,0,0,1,.45,1.16,1.36,1.36,0,0,1-.46,1.15,2.17,2.17,0,0,1-1.4.37h-.56v1.18h-1V63.54h1.5A2.12,2.12,0,0,1,67.16,63.92Zm-.69,1.67a.85.85,0,0,0,.17-.56.57.57,0,0,0-.22-.52,1.17,1.17,0,0,0-.69-.16h-.54v1.43h.64A.87.87,0,0,0,66.47,65.59Z"/><path class="cls-2" d="M4.4,26.69V-.23l6-1V20.28l11.47-2v5.35Z"/><path class="cls-2" d="M44.81-4.95Q47.65-3,47.64,2a10.37,10.37,0,0,1-2.9,7.81q-2.91,2.82-8.88,3.88l-3.58.63v7.51l-6,1.06V-4.08l9.51-1.68Q42-6.85,44.81-4.95ZM40.4,6.42a6,6,0,0,0,1.08-3.73c0-1.55-.47-2.57-1.4-3.06a7.21,7.21,0,0,0-4.37-.22L32.28,0V9.07l4-.71C38.32,8,39.69,7.36,40.4,6.42Z"/><path class="cls-2" d="M24.88,32.52q3.86,2.85,3.86,9.12A15.6,15.6,0,0,1,25,52.24q-3.75,4.32-11.46,5.68l-9.2,1.62V32.62L13.83,31Q21,29.68,24.88,32.52ZM20.48,49.3a9.31,9.31,0,0,0,2.21-6.44q0-4-2.21-5.71c-1.48-1.16-3.75-1.48-6.8-.94l-3.35.59V53.17l3.81-.67A10.72,10.72,0,0,0,20.48,49.3Z"/><path class="cls-2" d="M55.77,32.49q0,6.46-5.12,9.26l6.81,8.42-7.39,1.31-6-7.54-4.16.73v8.59l-6,1.06V27.4l10.21-1.8c4.18-.73,7.17-.55,9,.54S55.77,29.35,55.77,32.49ZM48.53,37a4.78,4.78,0,0,0,1.12-3.37c0-1.45-.39-2.38-1.16-2.78s-2.12-.44-4-.1l-4.51.79v8l4.39-.78A7.54,7.54,0,0,0,48.53,37Z"/><path class="cls-2" d="M61.76,48.74a2.71,2.71,0,0,1-1-2.23,3.86,3.86,0,0,1,1-2.58,4,4,0,0,1,2.4-1.41,2.83,2.83,0,0,1,2.41.56,2.71,2.71,0,0,1,1,2.23,3.86,3.86,0,0,1-1,2.58,4,4,0,0,1-2.41,1.41A2.8,2.8,0,0,1,61.76,48.74Z"/></svg>